# xmcd
#
# Track frame offsets:
#	150
#	19932
#	40050
#	57057
#	76275
#	92715
#	111087
#	129687
#
# Disc length: 1953 seconds
#
# Revision: 0
# Processed by: cddbd v1.4PL0 Copyright (c) Steve Scherf et al.
# Submitted via: dBpowerAMP V4.0
#
DISCID=5e079f08
DTITLE=Willie Dixon - Mighty Earthquake and Hurricane
DYEAR=1984
DGENRE=Blues
TTITLE0=Mighty Earthquake and Hurricane
TTITLE1=It Don't Make Sense (You Can't Make Peace)
TTITLE2=After Five Long Years
TTITLE3=Everything's Got A Time
TTITLE4=Wigglin' Worm
TTITLE5=Flamin' Mamie
TTITLE6=Grave Digger Blues
TTITLE7=Pie In The Sky
EXTD=
EXTT0=
EXTT1=
EXTT2=
EXTT3=
EXTT4=
EXTT5=
EXTT6=
EXTT7=
PLAYORDER=
